<?xml version="1.0" encoding="UTF-8"?><svg id="Layer_1" xmlns="http://www.w3.org/2000/svg" viewBox="0 0 4634.65 1041.54"><defs><style>.cls-1{fill:#5956f0;}.cls-2{fill:#e95883;}.cls-3{fill:#fff;}.cls-4{fill:#36c4e7;}.cls-5{fill:#5a57f0;}</style></defs><path class="cls-3" d="M431.81,247.39c-.2-5.96-.65-11.92-.57-17.87.31-24.78-2.49-49.31-5.59-73.83-.52-4.07-1.32-8.13-2.29-12.12-2.01-8.19-7.67-10.16-14.21-5.04-1.56,1.22-3,2.61-4.45,3.96-6.16,5.74-11.09,12.53-16.39,19.02-14.22,17.37-28.03,35.04-40.86,53.47-2.41,3.47-4.27,7.39-7.6,10.19-.83-.91-2.02-1-3.1-1.29-16.9-4.49-33.92-8.37-51.42-9.53-8.07-.53-16.18-.86-24.23.45-1.43-.92-3.04-.57-4.57-.56-15.8.1-31.4,1.97-46.81,5.42-8.02,1.8-16,3.79-23.5,7.3-3.48-3.94-7.02-7.84-10.43-11.84-17.83-20.92-37.31-40.25-56.78-59.6-4.23-4.2-8.87-8.03-14.11-10.98-3.59-2.02-6.82-1.67-9.42.81-1.5,1.43-2.22,3.22-2.62,5.24-1.18,6.05-.8,12.19-1.1,18.29-1.05,21.2-.43,42.37,1.47,63.49,1.19,13.3,2.52,26.6,4.12,39.86.64,5.31.05,10.88,2.68,15.86-4.57,6.69-8.85,13.59-13.75,20.03-12.66,16.64-25.72,32.97-38.36,49.62-7.6,10.02-16.05,19.2-25.24,27.72-3.85,3.57-7.64,7.34-11.98,10.24-9.48,6.35-13.71,17.24-8.35,29.99,6.61,15.69,18.61,25.69,33.91,31.75,10.01,3.97,20.55,6.6,31.37,7.75,3.48.37,3.66.64,2.44,3.95-3.68,10.01-7.15,20.08-10.17,30.31-9.35,31.63-14.74,63.95-16.3,96.86-.96,20.32-.61,40.67,1.6,60.94.83,7.65,2.67,15.08,5.36,22.31,4.04,10.86,9.7,20.89,15.91,30.58,5.84,9.11,12.45,17.75,20.56,24.96,16.69,14.84,35.36,26.71,55.72,35.95,7.25,3.29,14.8,5.8,22.1,8.94-1.64,5.74-3.38,11.45-4.88,17.23-3.91,15-7.35,30.08-9.34,45.49-1.38,10.74-1.17,21.58-2.33,32.32-.54,4.96-.81,9.93-.62,14.91.31,8.11,1.03,16.17,3.95,23.86,1.52,4,4.04,7.24,7.81,9.24,4.77,2.53,9.66,4.84,14.98,6.06,10.13,2.32,20.36,3.96,30.74,4.54,15.86.89,31.52-.66,47.02-4.04,2.19-.48,3.86-1.51,5.48-3.02,3.82-3.57,5.6-8.17,6.81-13.03,2.82-11.34,4.38-22.87,5.24-34.51,1.09-14.76,1.35-29.55,1.34-44.34,0-15.35,1.3-30.72-.52-46.05,4.69-.98,9.38-1.94,14.07-2.93,10.25-2.17,20.17-5.48,30.12-8.71.03,1.28.08,2.55.1,3.83.31,25.4,15.74,48.17,39.24,57.82,3.27,1.34,6.62,2.45,9.94,3.67-3.84,10.4-7.43,20.88-10.2,31.63-4.23,16.43-7.32,33.02-6.43,50.11.49,9.28,2.02,18.33,5.5,27.02.98,2.45,2.28,4.65,4.11,6.4,4.93,4.74,10.18,9.03,16.89,11.19,10.22,3.29,20.72,4.69,31.38,5.54,13.75,1.1,27.27.17,40.48-3.77,11.81-3.53,12.9-3.64,16.97-17.11,4.38-14.54,5.16-29.65,5.61-44.71.39-13.22.24-26.45.33-39.67.97.21,1.95.38,2.9.64,18.23,5.01,35.47,2.76,51.68-7.04,2.32-1.4,4.54-2.93,6.58-4.72,1.27-1.11,2.23-1,3.07.47.28.49.66.93,1.01,1.38,16.05,20.82,37.28,32.17,63.42,33.78,19.53,1.2,37.41-4.27,53.5-15.44,3.24-2.25,3.22-2.24,6.41.1,13.54,9.92,28.61,14.21,45.36,12.35,18.23-2.03,32.8-10.49,43.99-24.93,2.18-2.82,4.13-5.8,5.67-9.01.83-1.72,1.67-2.64,3.45-1.13.43.37.93.66,1.4.97,10.51,6.74,22.02,10.71,34.43,11.54,20.35,1.37,38.51-4.45,54.05-17.8,1.85-1.59,3.24-1.58,5.3-.67,6.65,2.96,13.59,5.02,20.82,6.04-.18,1.12-.34,2.25-.55,3.36-4.32,22.54-5.36,45.11-.41,67.69,1.69,7.71,2.7,15.62,7.92,22.18,3.4,4.27,6.96,8.19,11.63,11.08,8.36,5.17,17.64,6.92,27.25,7.35,7.67.34,15.34.01,22.98-.9,13.44-1.61,26.12-5.29,37.56-12.81,5.4-3.55,10.56-7.2,13.05-13.52,1.36-3.44,2.55-6.93,3.27-10.57,1.88-9.51,2.61-19.11,2.78-28.8.39-21.68-1.32-43.15-6.22-64.32-2.18-9.42-5.14-18.61-8.18-27.78,17.74-1.17,32.77-8.2,44.39-21.64,14.83-17.15,18.79-37.11,13.71-58.93.46-.23.69-.43.96-.47.56-.1,1.13-.11,1.7-.16,15.3-1.46,28.52-7.56,39.39-18.36,24.18-24.02,24.9-63.27,1.77-88.41q-2.46-2.68-.49-6.02c9.96-16.89,13.96-35.09,11.13-54.48-4.61-31.66-21.88-53.91-50.99-67.06-4.89-2.21-10.13-3.43-15.23-5.01.23-1.45,1.19-2.17,1.9-3.01,12.49-14.72,17.67-31.7,14.78-50.74-3.73-24.54-17.58-41.4-40.54-50.71-9.43-3.82-19.33-4.43-29.37-3.75-.38-2.59.52-5.08.58-7.63.32-13.49,1.29-26.94.4-40.48-.83-12.64-2.04-25.21-3.93-37.71-4.25-28.15-11.03-55.71-19.74-82.81-10.87-33.84-23.08-67.2-35.8-100.37-4.99-13-10.49-25.82-16.9-38.2-3.52-6.8-7.17-13.61-12.96-18.9-4.62-4.23-8.41-4.64-13.95-1.66-7.27,3.91-11.64,10.24-14.86,17.55-1.95,4.43-3.13,9.14-4.6,13.74-10.06,31.41-21.8,62.23-33.26,93.14-13.76,37.1-30.25,73-48.29,108.19-1.29,2.51-2.4,5.15-4.21,7.37-5.88-9.51-12.89-18.03-21.88-24.78-19.28-14.48-40.89-19.77-64.71-16.47-9.26,1.28-17.87,4.52-26.28,8.4-9.2-16.53-17.67-33.42-25.11-50.82-13.39-31.29-24.25-63.43-32.15-96.54-4.72-19.77-8.31-39.75-11.23-59.87-1.8-12.36-3.95-24.68-6.1-36.99-.58-3.33-.92-6.77-2.54-9.87-2.38-4.58-6.35-6.06-11.07-4.02-2,.87-3.71,2.19-4.97,3.93-2.08,2.87-4.09,5.81-5.93,8.84-6.23,10.27-10.72,21.31-14.35,32.72-4.56,14.38-7.69,29.11-10.7,43.86-3.89,19.09-6.75,38.33-7.95,57.79-1.07,17.47-1.08,34.96,0,52.42.46,7.51,1.29,15,2.08,22.49,1.3,12.3,3.46,24.47,5.67,36.63-.37.2-.73.44-1.13.58-19.8,7.35-35.07,20.05-45.42,38.54-.49.87-.98,1.74-2.06,2.02-3.02-4.81-6.58-9.24-9.84-13.88-5.45-7.76-12.75-14.1-17.24-22.59-.39-.74-1-1.39-1.62-1.96-6.55-6.14-13.49-11.7-22.03-14.9Z"/><path class="cls-4" d="M364,842.31c-3.32-1.22-6.67-2.33-9.94-3.67-23.5-9.65-38.93-32.42-39.24-57.82-.02-1.28-.06-2.55-.1-3.83,1.04-.46,2.06-.95,3.11-1.37,26.2-10.35,49.79-24.92,70.49-44.03,32.92-30.4,54.99-67.36,66.32-110.74,2.91-11.15,4.54-22.55,6.21-33.91.88-6.01.68-12.19.69-18.3.02-7.67-.28-15.35-.36-23.02-.15-14.36-.23-28.72-.34-43.08.02-10.81.06-21.62.05-32.43,0-1.12-.28-2.25-.44-3.37-.66-4.59-.49-9.18-.29-13.73.84-.1,1.14.19,1.32.58,1.81,4.07,4.54,7.52,7.31,10.95,4.18,5.17,9.23,9.27,15.28,12.01,8.37,3.79,17.32,5.52,26.38,6.28,12.11,1.02,24.11-.31,35.86-3.45,8.82-2.36,16.22-6.73,20.81-15.04,1.33-2.41,1.56-4.61.49-7.27-7.78-19.29-17.21-37.78-27.36-55.87-11.4-20.32-22.58-40.76-33.81-61.17-7.4-13.45-15.21-26.65-23.89-39.31,1.07-.29,1.56-1.16,2.05-2.03,10.35-18.49,25.61-31.19,45.42-38.54.39-.15.75-.39,1.13-.59,1.1-.26,2.22-.47,3.31-.77,10.06-2.76,20.23-4.01,30.71-3.17,15.98,1.28,30.37,6.64,43.35,15.94,5.9,4.23,11.06,9.29,15.72,14.77.44-.22.76-.29.92-.49.55-.64,1.05-1.33,1.56-2.01,4.91-6.49,10.47-12.35,17.05-17.14,3.78-2.75,7.8-5.16,11.71-7.72,8.41-3.89,17.02-7.12,26.28-8.4,23.82-3.3,45.43,2,64.71,16.47,8.99,6.75,16,15.27,21.88,24.78-.2,1.46-1.06,2.63-1.73,3.87-15.8,29.66-32.93,58.5-52.41,85.92-11.71,16.48-24.21,32.33-37.95,47.19-13.06,14.12-27.23,27.07-41.45,39.98-1.55,1.41-3.19,2.65-2.3,4.96.86,2.23,2.9,1.84,4.76,1.76,4.6-.21,9.05.56,13.43,1.95,22.33,7.07,40.19,30.36,33.34,58.02-.66,2.66-.39,3.12,2.34,2.99,5.18-.24,10.2.63,15.19,1.8,15.33,3.58,26.93,11.8,33.23,26.67,1.39,3.28,2.65,6.59,3.65,10.01,1.96,6.75,2.91,13.62,2.66,20.64-.08,2.21.84,3.04,2.97,3.1,11.55.3,22.11,4.15,31.75,10.09,4.81,2.96,9.21,3.03,14.13,1.66,1.78-.49,3.52-1.12,5.25-1.79,18.99-7.36,37.49-15.79,55.2-25.86,27.46-15.63,51.61-35.13,71.21-60.2,24.69-31.57,40.33-67.07,48.21-106.21,2.58-12.83,4.41-25.77,6.06-38.74,10.04-.68,19.94-.07,29.37,3.75,22.96,9.31,36.81,26.16,40.54,50.71,2.9,19.04-2.29,36.02-14.78,50.74-.71.84-1.67,1.57-1.9,3.01,5.1,1.58,10.34,2.8,15.23,5.01,29.11,13.15,46.38,35.4,50.99,67.06,2.82,19.4-1.17,37.6-11.13,54.48q-1.97,3.34.49,6.02c23.13,25.14,22.41,64.39-1.77,88.41-10.88,10.81-24.09,16.9-39.39,18.36-.57.05-1.14.07-1.7.16-.26.05-.5.24-.96.47,5.08,21.82,1.12,41.78-13.71,58.93-11.62,13.44-26.65,20.47-44.39,21.64-5.52-.04-11.05.16-16.5-1.06-4.01-.9-4.12-.88-5.8,2.66-3.87,8.17-9.25,15.31-15.57,21.63-8.19,8.18-17.71,14.49-28.56,18.79-14.45,5.73-29.36,7.02-44.65,5.03-7.23-1.02-14.17-3.08-20.82-6.04-2.05-.91-3.44-.93-5.3.67-15.54,13.36-33.7,19.17-54.05,17.8-12.41-.83-23.92-4.8-34.43-11.54-.48-.31-.97-.6-1.4-.97-1.78-1.51-2.63-.59-3.45,1.13-1.54,3.21-3.49,6.2-5.67,9.01-11.18,14.44-25.76,22.91-43.99,24.93-16.75,1.86-31.83-2.42-45.36-12.35-3.19-2.34-3.17-2.34-6.41-.1-16.09,11.18-33.97,16.64-53.5,15.44-26.14-1.61-47.38-12.96-63.42-33.78-.35-.45-.72-.89-1.01-1.38-.84-1.46-1.8-1.58-3.07-.47-2.03,1.79-4.26,3.32-6.58,4.72-16.22,9.8-33.45,12.05-51.68,7.04-.95-.26-1.93-.43-2.9-.64-.58-.71-1.46-.81-2.24-1.13-19.72-8.16-32.6-22.47-38.59-42.97-.26-.88.09-2.06-1.14-2.57-1.59.46-2.43,1.87-3.5,2.94-11.86,12.01-26.43,17.51-43.09,18.18-5.42.22-10.72-.73-16.08-1.06Z"/><path class="cls-2" d="M460.85,502.55c.11,14.36.19,28.72.34,43.08.08,7.67.38,15.35.36,23.02-.02,6.11.19,12.29-.69,18.3-1.67,11.36-3.3,22.76-6.21,33.91-11.33,43.37-33.4,80.34-66.32,110.74-20.69,19.11-44.29,33.68-70.49,44.03-1.05.42-2.07.91-3.11,1.37-9.95,3.22-19.87,6.53-30.11,8.7-4.69.99-9.38,1.95-14.07,2.93-1.28.06-2.57,0-3.83.19-10.27,1.55-20.61,2.27-30.99,2.29-4.98,0-9.93-.3-14.9-.59-10.38-.61-20.6-2.16-30.79-4.09-8.53-1.62-16.76-4.35-25.16-6.44-7.3-3.13-14.85-5.65-22.1-8.94-20.36-9.23-39.02-21.11-55.72-35.95-8.11-7.2-14.72-15.85-20.56-24.96-6.22-9.69-11.87-19.72-15.91-30.58-2.69-7.23-4.53-14.66-5.36-22.31-2.21-20.26-2.56-40.61-1.6-60.94,1.55-32.91,6.94-65.23,16.3-96.86,3.02-10.23,6.5-20.3,10.17-30.31,1.22-3.32,1.04-3.58-2.44-3.95-10.81-1.15-21.35-3.78-31.37-7.75-15.3-6.06-27.31-16.06-33.91-31.75-5.37-12.74-1.14-23.64,8.35-29.99,4.34-2.9,8.12-6.67,11.98-10.24,9.19-8.52,17.64-17.71,25.24-27.72,12.64-16.65,25.7-32.98,38.36-49.62,4.9-6.44,9.19-13.34,13.75-20.03,1.61,1.53,3.59,2.19,5.75,2.52,6.12.95,12.13.75,18.11-1.05,15.23-4.59,28.32-12.9,40.63-22.72,9.72-7.75,16.74-17.29,20.62-29.1,1.15-3.51,2.47-7.01,1.07-10.77,7.5-3.5,15.49-5.5,23.5-7.3,15.4-3.46,31.01-5.32,46.81-5.42,1.53,0,3.14-.36,4.57.56-2.86,1.35-4.75,3.54-5.72,6.54-2.7,8.39-4.92,16.92-6.22,25.64-1,6.74-1.69,13.52-2.38,20.3-.84,8.34-1.73,16.68-1.69,25.08.02,4.26.63,8.52.52,12.77-.56,20.07,2.41,39.64,7.69,58.95,7.91,28.87,20.71,55.34,38.78,79.18,12.57,16.57,28.11,29.68,46.99,38.65,12.99,6.18,26.61,10.75,40.13,15.54,11.81,4.19,24.13,6.48,36.48,8.5,12.06,1.96,24.15,3.86,36.43,3.36,7.1-.29,7.11-.49,8.47-6.42.03-.13.17-.23.25-.34Z"/><path class="cls-2" d="M975.88,379.62c-1.65,12.97-3.48,25.91-6.06,38.74-7.88,39.14-23.52,74.64-48.21,106.21-19.6,25.07-43.75,44.57-71.21,60.2-17.7,10.08-36.21,18.5-55.2,25.86-1.72.67-3.47,1.3-5.25,1.79-4.92,1.36-9.33,1.29-14.13-1.66-9.64-5.93-20.2-9.79-31.75-10.09-2.13-.06-3.05-.89-2.97-3.1.25-7.02-.7-13.89-2.66-20.64-1-3.42-2.26-6.73-3.65-10.01-6.3-14.86-17.9-23.08-33.23-26.67-4.99-1.17-10.01-2.04-15.19-1.8-2.73.13-3-.33-2.34-2.99,6.84-27.66-11.01-50.95-33.34-58.02-4.38-1.39-8.83-2.16-13.43-1.95-1.86.09-3.9.48-4.76-1.76-.89-2.31.75-3.55,2.3-4.96,14.22-12.9,28.39-25.86,41.45-39.98,13.74-14.86,26.24-30.71,37.95-47.19,19.48-27.41,36.61-56.26,52.41-85.92.66-1.25,1.53-2.41,1.73-3.87,1.81-2.22,2.93-4.86,4.21-7.37,18.04-35.19,34.53-71.09,48.29-108.19,11.46-30.91,23.2-61.72,33.26-93.14,1.47-4.6,2.65-9.3,4.6-13.74,3.22-7.31,7.6-13.64,14.86-17.55,5.54-2.98,9.33-2.57,13.95,1.66,5.79,5.29,9.43,12.1,12.96,18.9,6.41,12.38,11.91,25.19,16.9,38.2,12.72,33.17,24.93,66.53,35.8,100.37,8.71,27.1,15.49,54.67,19.74,82.81,1.89,12.5,3.09,25.07,3.93,37.71.89,13.54-.08,26.99-.4,40.48-.06,2.55-.95,5.04-.58,7.63Z"/><path class="cls-1" d="M460.85,502.55c-.09.11-.23.21-.25.34-1.36,5.94-1.37,6.14-8.47,6.42-12.28.5-24.37-1.4-36.43-3.36-12.35-2.01-24.66-4.31-36.48-8.5-13.52-4.79-27.14-9.37-40.13-15.54-18.88-8.97-34.42-22.08-46.99-38.65-18.08-23.84-30.88-50.31-38.78-79.18-5.29-19.31-8.26-38.88-7.69-58.95.12-4.25-.49-8.51-.52-12.77-.04-8.39.85-16.74,1.69-25.08.69-6.78,1.38-13.57,2.38-20.3,1.3-8.72,3.51-17.24,6.22-25.64.97-3,2.86-5.19,5.72-6.54,8.05-1.31,16.16-.99,24.23-.45,17.5,1.16,34.52,5.04,51.42,9.53,1.08.29,2.26.38,3.1,1.29-2.24,3.1-2.41,6.65-1.82,10.17,1.44,8.6,4.99,16.29,10.98,22.66,7.02,7.47,15.78,12.42,25.02,16.63,8.98,4.09,18.65,5.84,28.09,8.33,7.89,2.09,15.86,2.34,23.85-.34,3.02-1.02,4.39-2.67,5.07-5.53.65-2.7.11-5.35.02-8.01-.25-7.25.53-14.46.75-21.69,8.54,3.2,15.48,8.76,22.03,14.9.62.58,1.23,1.23,1.62,1.96,4.5,8.49,11.79,14.83,17.24,22.59,3.26,4.64,6.82,9.07,9.84,13.88,8.69,12.67,16.5,25.86,23.9,39.32,11.23,20.41,22.4,40.86,33.81,61.17,10.15,18.1,19.59,36.59,27.36,55.87,1.07,2.66.85,4.85-.49,7.27-4.59,8.3-11.99,12.68-20.81,15.04-11.75,3.14-23.75,4.48-35.86,3.45-9.05-.76-18-2.5-26.38-6.28-6.06-2.74-11.1-6.84-15.28-12.01-2.77-3.43-5.49-6.89-7.31-10.95-.17-.39-.48-.68-1.32-.58-.21,4.54-.37,9.13.29,13.73.16,1.12.44,2.24.44,3.37.01,10.81-.03,21.62-.05,32.43Z"/><path class="cls-2" d="M655.47,258.99c-3.91,2.56-7.94,4.97-11.71,7.72-6.58,4.79-12.15,10.66-17.05,17.14-.51.68-1.01,1.36-1.56,2.01-.17.2-.49.26-.92.49-4.66-5.49-9.81-10.54-15.72-14.77-12.98-9.31-27.37-14.66-43.35-15.94-10.48-.84-20.65.41-30.71,3.17-1.09.3-2.2.52-3.31.77-2.22-12.16-4.38-24.33-5.67-36.63-.79-7.49-1.62-14.98-2.08-22.49-1.08-17.47-1.07-34.96,0-52.42,1.19-19.45,4.06-38.7,7.95-57.79,3.01-14.76,6.13-29.49,10.7-43.86,3.62-11.41,8.12-22.45,14.35-32.72,1.84-3.03,3.85-5.97,5.93-8.84,1.26-1.74,2.97-3.06,4.97-3.93,4.72-2.04,8.68-.56,11.07,4.02,1.62,3.1,1.96,6.53,2.54,9.87,2.14,12.31,4.3,24.62,6.1,36.99,2.92,20.11,6.51,40.1,11.23,59.87,7.9,33.11,18.76,65.25,32.15,96.54,7.45,17.4,15.92,34.29,25.11,50.82Z"/><path class="cls-5" d="M164.86,779.98c8.4,2.08,16.63,4.82,25.16,6.44,10.19,1.94,20.41,3.49,30.79,4.09,4.97.29,9.93.6,14.9.59,10.39-.01,20.72-.73,30.99-2.29,1.26-.19,2.55-.14,3.83-.19,1.81,15.33.51,30.7.52,46.05,0,14.79-.25,29.58-1.34,44.34-.86,11.64-2.42,23.18-5.24,34.51-1.21,4.86-2.99,9.46-6.81,13.03-1.61,1.51-3.29,2.54-5.48,3.02-15.5,3.38-31.16,4.93-47.02,4.04-10.38-.58-20.61-2.22-30.74-4.54-5.32-1.22-10.21-3.53-14.98-6.06-3.76-2-6.29-5.23-7.81-9.24-2.92-7.69-3.65-15.75-3.95-23.86-.19-4.98.08-9.95.62-14.91,1.16-10.74.95-21.58,2.33-32.32,1.99-15.41,5.43-30.49,9.34-45.49,1.5-5.77,3.25-11.49,4.88-17.23Z"/><path class="cls-5" d="M871.69,855.43c15.3,1.99,30.2.7,44.65-5.03,10.84-4.3,20.37-10.61,28.56-18.79,6.32-6.32,11.7-13.46,15.57-21.63,1.67-3.53,1.79-3.56,5.8-2.66,5.45,1.22,10.98,1.02,16.5,1.06,3.03,9.17,6,18.36,8.18,27.78,4.9,21.17,6.61,42.63,6.22,64.32-.17,9.69-.91,19.29-2.78,28.8-.72,3.63-1.91,7.12-3.27,10.57-2.49,6.32-7.65,9.97-13.05,13.52-11.44,7.52-24.12,11.2-37.56,12.81-7.64.91-15.31,1.25-22.98.9-9.6-.43-18.88-2.18-27.25-7.35-4.67-2.89-8.23-6.82-11.63-11.08-5.22-6.56-6.23-14.47-7.92-22.18-4.95-22.59-3.91-45.15.41-67.69.21-1.12.37-2.24.55-3.36Z"/><path class="cls-5" d="M364,842.31c5.36.34,10.66,1.28,16.08,1.06,16.67-.66,31.23-6.17,43.09-18.18,1.06-1.08,1.9-2.48,3.5-2.94,1.23.51.88,1.69,1.14,2.57,5.99,20.5,18.87,34.8,38.59,42.97.78.32,1.66.42,2.24,1.13-.09,13.22.06,26.46-.33,39.67-.45,15.06-1.22,30.18-5.61,44.71-4.06,13.48-5.16,13.58-16.97,17.11-13.21,3.95-26.73,4.87-40.48,3.77-10.67-.85-21.16-2.24-31.38-5.54-6.71-2.16-11.96-6.45-16.89-11.19-1.82-1.75-3.13-3.95-4.11-6.4-3.48-8.69-5.01-17.74-5.5-27.02-.89-17.09,2.2-33.68,6.43-50.11,2.76-10.74,6.36-21.23,10.2-31.63Z"/><path class="cls-4" d="M431.81,247.39c-.21,7.23-1,14.44-.75,21.69.09,2.66.63,5.31-.02,8.01-.68,2.86-2.05,4.52-5.07,5.53-7.99,2.68-15.95,2.42-23.85.34-9.44-2.49-19.11-4.24-28.09-8.33-9.24-4.21-18-9.16-25.02-16.63-5.99-6.37-9.54-14.07-10.98-22.66-.59-3.52-.43-7.07,1.82-10.17,3.32-2.8,5.18-6.72,7.6-10.19,12.83-18.43,26.64-36.1,40.86-53.47,5.31-6.48,10.23-13.27,16.39-19.02,1.45-1.36,2.89-2.74,4.45-3.96,6.53-5.12,12.2-3.15,14.21,5.04.98,3.99,1.78,8.05,2.29,12.12,3.1,24.51,5.9,49.05,5.59,73.83-.07,5.95.37,11.91.57,17.87Z"/><path class="cls-4" d="M186.23,226.96c1.4,3.76.08,7.26-1.07,10.77-3.89,11.82-10.91,21.35-20.62,29.1-12.31,9.82-25.41,18.14-40.63,22.72-5.98,1.8-12,2-18.11,1.05-2.15-.33-4.14-.99-5.75-2.52-2.63-4.99-2.03-10.56-2.68-15.86-1.61-13.26-2.93-26.55-4.12-39.86-1.89-21.13-2.51-42.29-1.47-63.49.3-6.1-.08-12.23,1.1-18.29.4-2.02,1.12-3.81,2.62-5.24,2.6-2.49,5.84-2.84,9.42-.81,5.24,2.95,9.88,6.78,14.11,10.98,19.46,19.35,38.95,38.69,56.78,59.6,3.41,4,6.95,7.9,10.43,11.84Z"/><path d="M1311.58,403.05c28.28-48.4,66.62-86.75,115.04-115.04,48.4-28.28,101.18-42.43,158.35-42.43s112.27,15.02,161.85,45.05c49.57,30.05,87.77,69.85,114.6,119.42l-100.61,53.37c-17.5-30.91-41.99-55.84-73.49-74.8-31.49-18.95-65.61-28.43-102.36-28.43s-69.85,9.05-101.04,27.12c-31.21,18.08-55.85,42.58-73.92,73.49-18.08,30.92-27.12,64.45-27.12,100.61s9.04,69.7,27.12,100.61c18.07,30.92,42.72,55.42,73.92,73.49,31.19,18.08,64.88,27.12,101.04,27.12s72.46-9.62,103.67-28.87c31.19-19.25,55.55-44.9,73.05-76.99l100.61,55.12c-26.83,50.17-65.04,90.26-114.6,120.29-49.58,30.05-103.82,45.05-162.72,45.05s-109.94-14.13-158.35-42.43c-48.42-28.28-86.76-66.62-115.04-115.04-28.3-48.4-42.43-101.18-42.43-158.35s14.13-109.93,42.43-158.35Z"/><path d="M2335.58,865.84h-107.61v-258.95c0-32.66-9.19-56.13-27.56-70.42-18.37-14.28-40.11-21.43-65.18-21.43-19.83,0-37.77,6.12-53.8,18.37-16.05,12.25-26.4,31.79-31.06,58.61v273.83h-108.48V253.45h108.48v211.71c14.57-14,31.34-25.07,50.3-33.24,18.95-8.16,39.22-12.25,60.8-12.25,25.66,0,51.62,5.4,77.86,16.18,26.25,10.8,48.84,29.9,67.8,57.3,18.95,27.42,28.43,64.45,28.43,111.11v261.58Z"/><path d="M2703.01,428.42h113.73l-153.1,438.3c-22.75,60.06-54.1,105.12-94.05,135.16-39.96,30.03-87.05,43-141.29,38.93v-104.98c3.5.57,8.75.87,15.75.87,46.65,0,83.11-28.3,109.36-84.86l-192.47-423.42h116.35l128.6,278.2,97.11-278.2Z"/><path d="M3460.62,433.23c26.25,10.8,48.84,30.18,67.8,58.18,18.95,28,28.43,65.61,28.43,112.85v261.58h-107.61v-261.58c0-32.66-9.19-56.13-27.56-70.42-18.37-14.28-39.81-21.43-64.3-21.43-21,0-39.37,6.27-55.12,18.81-15.75,12.55-25.96,32.52-30.62,59.93v274.7h-107.61v-261.58c0-32.66-9.19-56.13-27.56-70.42-18.37-14.28-40.11-21.43-65.18-21.43-19.83,0-37.77,6.12-53.8,18.37-16.05,12.25-26.4,31.79-31.06,58.61v276.45h-108.48v-437.42h108.48v34.12c14.57-14,31.34-25.07,50.3-33.24,18.95-8.16,39.22-12.25,60.8-12.25,26.82,0,53.94,5.84,81.36,17.5,27.41,11.67,49.28,31.21,65.61,58.61,15.16-21.57,34.99-39.65,59.49-54.24,24.5-14.57,50.74-21.87,78.74-21.87,25.66,0,51.62,5.4,77.86,16.18Z"/><path d="M3667.96,339.18c-11.67-11.07-17.5-26.25-17.5-45.49s5.82-35.28,17.5-46.37c11.66-11.07,27.69-16.62,48.12-16.62s36.44,5.55,48.12,16.62c11.66,11.09,17.5,26.55,17.5,46.37,0,18.67-5.99,33.68-17.93,45.05-11.96,11.37-27.86,17.06-47.68,17.06s-36.46-5.54-48.12-16.62ZM3660.96,865.84v-437.42h108.48v437.42h-108.48Z"/><path d="M4137.74,419.67l-7.87,102.36c-3.5-1.16-9.62-1.75-18.37-1.75-36.17,0-66.05,10.5-89.67,31.49-23.62,21-35.43,49.58-35.43,85.73v228.33h-108.48v-437.42h108.48v73.49c9.91-23.32,26.82-42.87,50.74-58.61,23.91-15.75,52.78-23.62,86.61-23.62h14Z"/><path d="M4526.17,428.42h108.48v437.42h-108.48v-42.87c-20.42,17.5-42.73,31.06-66.93,40.68-24.21,9.62-49.73,14.44-76.55,14.44-44.33,0-83.11-9.92-116.35-29.75-33.24-19.82-58.77-47.24-76.55-82.24-17.8-34.99-26.68-74.36-26.68-118.1s8.89-83.11,26.68-118.1c17.78-34.99,43.3-62.55,76.55-82.67s72.02-30.18,116.35-30.18c26.82,0,52.34,4.81,76.55,14.44,24.19,9.62,46.5,23.18,66.93,40.68v-43.74ZM4461.87,757.8c19.53-10.79,34.99-25.81,46.37-45.05s17.06-41.12,17.06-65.61c0-36.74-12.4-66.77-37.18-90.11-24.8-23.32-55.26-34.99-91.42-34.99s-66.93,11.81-90.55,35.43c-23.62,23.62-35.43,53.8-35.43,90.55s11.81,66.93,35.43,90.55c23.62,23.62,53.8,35.43,90.55,35.43,23.91,0,45.63-5.39,65.18-16.18Z"/></svg>