<svg xmlns="http://www.w3.org/2000/svg" width="185" height="80" fill="none"><path fill="#FAC515" d="M27 26h8v8h-8z"/><path fill="#B6C412" d="M27 36h8v8h-8z"/><path fill="#66C61C" d="M27 46h8v8h-8z"/><path fill="#F79009" d="M37 26h8v8h-8z"/><path fill="#FAC515" d="M37 36h8v8h-8z"/><path fill="#B6C412" d="M37 46h8v8h-8z"/><path fill="#F04438" d="M47 26h8v8h-8z"/><path fill="#F79009" d="M47 36h8v8h-8z"/><path fill="#FAC515" d="M47 46h8v8h-8z"/><path fill="#182230" d="M72.667 26v28H68V26h4.667zm25.742 27.779h-2.756L83.306 26.22h4.888l8.855 19.659 8.819-19.658h4.887L98.409 53.779zm28.137-27.559v27.56h-4.666V26.22h4.666zm23.574 12.163c4.299 1.653 8.415 3.674 8.415 7.973 0 5.365-4.887 7.643-9.921 7.643-3.932.037-8.011-1.58-10.693-4.52l3.087-3.086c1.58 1.837 4.482 3.748 7.495 3.748 2.903-.036 5.328-1.065 5.328-3.6 0-2.39-2.645-3.308-6.724-5.072-3.38-1.433-7.826-3.343-7.826-7.936 0-4.116 3.894-7.533 9.333-7.533 4.189 0 7.643 1.69 10.178 4.41l-2.976 2.976c-1.617-1.69-4.373-3.491-7.533-3.491-1.984 0-4.299 1.029-4.299 3.344 0 2.756 3.013 3.931 6.136 5.144z"/></svg>