<?xml version="1.0" encoding="UTF-8"?>
<svg version="1.1" xmlns="http://www.w3.org/2000/svg" width="7109" height="1574">
<path d="M0 0 C128.7 0 257.4 0 390 0 C407.18975785 43.54738656 407.18975785 43.54738656 414.25 61.8125 C415.0451921 63.86658937 415.84052534 65.92062411 416.63598633 67.97460938 C418.27367489 72.20372117 419.91078639 76.43305554 421.54736328 80.66259766 C425.59013425 91.10992555 429.63839483 101.55512574 433.6875 112 C434.28201965 113.53377792 434.28201965 113.53377792 434.8885498 115.09854126 C440.56225302 129.73447841 446.2572515 144.36195375 451.97006226 158.98266602 C457.91274163 174.19299986 463.81891021 189.41734739 469.71826172 204.64453125 C475.12679038 218.60370686 480.55171846 232.55629346 486 246.5 C491.79212436 261.32510402 497.56022813 276.15938699 503.3125 291 C503.70869537 292.022146 504.10489075 293.04429199 504.51309204 294.09741211 C507.74906588 302.44646926 510.98386667 310.7959808 514.21862793 319.14550781 C517.0410437 326.43054849 519.86391177 333.71541367 522.6875 341 C523.08393707 342.02279053 523.48037415 343.04558105 523.88882446 344.09936523 C529.24129936 357.90660146 534.61125964 371.70687972 540 385.5 C545.79194637 400.3251739 551.5602279 415.15938639 557.3125 430 C557.70869537 431.022146 558.10489075 432.04429199 558.51309204 433.09741211 C561.74906588 441.44646926 564.98386667 449.7959808 568.21862793 458.14550781 C571.0410437 465.43054849 573.86391177 472.71541367 576.6875 480 C577.08393707 481.02279053 577.48037415 482.04558105 577.88882446 483.09936523 C583.24129936 496.90660146 588.61125964 510.70687972 594 524.5 C599.79194637 539.3251739 605.5602279 554.15938639 611.3125 569 C611.70869537 570.022146 612.10489075 571.04429199 612.51309204 572.09741211 C615.74906588 580.44646926 618.98386667 588.7959808 622.21862793 597.14550781 C625.0410437 604.43054849 627.86391177 611.71541367 630.6875 619 C631.08393707 620.02279053 631.48037415 621.04558105 631.88882446 622.09936523 C637.5624436 636.73502464 643.25735681 651.36222328 648.97006226 665.98266602 C654.91274163 681.19299986 660.81891021 696.41734739 666.71826172 711.64453125 C672.12679038 725.60370686 677.55171846 739.55629346 683 753.5 C688.79212436 768.32510402 694.56022813 783.15938699 700.3125 798 C700.70869537 799.022146 701.10489075 800.04429199 701.51309204 801.09741211 C704.74906588 809.44646926 707.98386667 817.7959808 711.21862793 826.14550781 C714.0410437 833.43054849 716.86391177 840.71541367 719.6875 848 C720.08393707 849.02279053 720.48037415 850.04558105 720.88882446 851.09936523 C726.24129936 864.90660146 731.61125964 878.70687972 737 892.5 C742.79194637 907.3251739 748.5602279 922.15938639 754.3125 937 C754.70869537 938.022146 755.10489075 939.04429199 755.51309204 940.09741211 C758.74906588 948.44646926 761.98386667 956.7959808 765.21862793 965.14550781 C768.0410437 972.43054849 770.86391177 979.71541367 773.6875 987 C774.08393707 988.02279053 774.48037415 989.04558105 774.88882446 990.09936523 C780.5624436 1004.73502464 786.25735681 1019.36222328 791.97006226 1033.98266602 C797.91274163 1049.19299986 803.81891021 1064.41734739 809.71826172 1079.64453125 C815.12679038 1093.60370686 820.55171846 1107.55629346 826 1121.5 C831.79212436 1136.32510402 837.56022813 1151.15938699 843.3125 1166 C843.70869537 1167.022146 844.10489075 1168.04429199 844.51309204 1169.09741211 C847.74906588 1177.44646926 850.98386667 1185.7959808 854.21862793 1194.14550781 C857.0410437 1201.43054849 859.86391177 1208.71541367 862.6875 1216 C863.08393707 1217.02279053 863.48037415 1218.04558105 863.88882446 1219.09936523 C869.24129936 1232.90660146 874.61125964 1246.70687972 880 1260.5 C885.79194637 1275.3251739 891.5602279 1290.15938639 897.3125 1305 C897.70869537 1306.022146 898.10489075 1307.04429199 898.51309204 1308.09741211 C901.74906588 1316.44646926 904.98386667 1324.7959808 908.21862793 1333.14550781 C911.0410437 1340.43054849 913.86391177 1347.71541367 916.6875 1355 C917.08393707 1356.02279053 917.48037415 1357.04558105 917.88882446 1358.09936523 C923.56010004 1372.7289792 929.25249478 1387.35020197 934.9630127 1401.96453857 C941.42839282 1418.51206276 947.85283768 1435.07536373 954.26757812 1451.64257812 C954.64298737 1452.61173157 955.01839661 1453.58088501 955.40518188 1454.57940674 C956.14724338 1456.49523351 956.88892857 1458.41120609 957.63021851 1460.32733154 C959.5921748 1465.39266706 961.56979122 1470.45133916 963.56689453 1475.50292969 C963.98516006 1476.56321381 964.4034256 1477.62349792 964.83436584 1478.71591187 C965.64040273 1480.75712393 966.44924137 1482.79723241 967.26121521 1484.83609009 C967.62046585 1485.74660126 967.97971649 1486.65711243 968.34985352 1487.59521484 C968.66922379 1488.39953949 968.98859406 1489.20386414 969.31764221 1490.03256226 C970 1492 970 1492 970 1494 C842.95 1494 715.9 1494 585 1494 C580.50036829 1482.75092072 580.50036829 1482.75092072 578.90380859 1478.09033203 C578.35968323 1476.50822937 578.35968323 1476.50822937 577.80456543 1474.89416504 C577.2322821 1473.21792053 577.2322821 1473.21792053 576.6484375 1471.5078125 C576.01751468 1469.67040658 575.38659085 1467.833001 574.75562668 1465.99560928 C574.0874283 1464.0482758 573.4204544 1462.10052695 572.75384521 1460.15264893 C571.35171967 1456.05577408 569.94602353 1451.96013027 568.53955078 1447.86474609 C568.30260435 1447.17477854 568.06565792 1446.48481098 567.8215313 1445.77393532 C567.34093227 1444.37448786 566.860323 1442.97504392 566.37970352 1441.57560349 C565.6540969 1439.46247972 564.92880539 1437.34924802 564.20358276 1435.23599243 C559.783446 1422.35778289 555.33349173 1409.48997893 550.875 1396.625 C549.39958699 1392.36593827 547.92440748 1388.10679567 546.44921875 1383.84765625 C546.08442917 1382.79453751 545.71963959 1381.74141876 545.34379578 1380.65638733 C541.11957725 1368.46030965 536.90243994 1356.26178706 532.6875 1344.0625 C532.1035849 1342.3726297 532.1035849 1342.3726297 531.50787354 1340.64862061 C526.88290895 1327.26234832 522.26610193 1313.87329514 517.66015625 1300.48046875 C517.20850767 1299.16727653 516.75685769 1297.8540848 516.3052063 1296.54089355 C515.85353508 1295.22762075 515.40186475 1293.91434764 514.95019531 1292.60107422 C514.72671606 1291.95128727 514.50323681 1291.30150032 514.27298546 1290.63202286 C514.04984484 1289.98322033 513.82670422 1289.3344178 513.59680176 1288.66595459 C513.37419174 1288.01870171 513.15158173 1287.37144882 512.92222595 1286.70458221 C512.47519695 1285.4047887 512.02818555 1284.10498913 511.58119202 1282.80518341 C504.97616435 1263.59901395 498.33325871 1244.40656793 491.61621094 1225.23925781 C483 1200.64359156 483 1200.64359156 483 1198 C292.92 1198 102.84 1198 -93 1198 C-93.66 1200.97 -94.32 1203.94 -95 1207 C-95.60020634 1208.99173285 -96.23614294 1210.97325274 -96.91674805 1212.93896484 C-97.28923172 1214.02252258 -97.66171539 1215.10608032 -98.04548645 1216.22247314 C-98.44684311 1217.37366638 -98.84819977 1218.52485962 -99.26171875 1219.7109375 C-99.68390182 1220.93431824 -100.1060849 1222.15769897 -100.5410614 1223.41815186 C-101.68059685 1226.71969926 -102.82624778 1230.01909347 -103.9731369 1233.31809235 C-105.1798616 1236.79268569 -106.38077437 1240.26928748 -107.58251953 1243.74560547 C-113.103851 1259.70856739 -118.66213392 1275.65867264 -124.2416687 1291.60137939 C-130.31540825 1308.95990952 -136.28518359 1326.35383023 -142.25 1343.75 C-142.49673714 1344.46958641 -142.74347427 1345.18917282 -142.99768829 1345.93056488 C-143.49623049 1347.3845204 -143.99477137 1348.83847636 -144.49331093 1350.29243279 C-145.73502458 1353.91373927 -146.97683497 1357.53501257 -148.21875 1361.15625 C-148.46399792 1361.87136875 -148.70924583 1362.5864875 -148.96192551 1363.32327652 C-154.62991016 1379.84887668 -160.32846073 1396.36386971 -166.04199219 1412.8737793 C-166.80405708 1415.07600198 -167.56610135 1417.2782318 -168.328125 1419.48046875 C-168.70418884 1420.56720383 -169.08025269 1421.6539389 -169.4677124 1422.77360535 C-172.19844117 1430.66966717 -174.91487111 1438.57058467 -177.62659454 1446.47318649 C-179.15893843 1450.93705919 -180.69427403 1455.39990425 -182.22912598 1459.86291504 C-183.06842773 1462.30616912 -183.90626583 1464.74992654 -184.74255371 1467.19421387 C-185.89753353 1470.56958012 -187.05759574 1473.94315999 -188.21875 1477.31640625 C-188.55847839 1478.3136824 -188.89820679 1479.31095856 -189.24822998 1480.3384552 C-189.56785706 1481.26389633 -189.88748413 1482.18933746 -190.21679688 1483.14282227 C-190.49036011 1483.94067642 -190.76392334 1484.73853058 -191.04577637 1485.56056213 C-192.17747933 1488.45371942 -193.61067566 1491.22135131 -195 1494 C-322.05 1494 -449.1 1494 -580 1494 C-573.11532737 1474.49342753 -573.11532737 1474.49342753 -570.58203125 1468.09375 C-570.2874704 1467.34210571 -569.99290955 1466.59046143 -569.68942261 1465.81604004 C-569.06007425 1464.2108631 -568.42948557 1462.60617195 -567.79769897 1461.00195312 C-566.03871701 1456.53494642 -564.2899059 1452.06395134 -562.5390625 1447.59375 C-562.17014389 1446.65265381 -561.80122528 1445.71155762 -561.42112732 1444.74194336 C-557.14864287 1433.83879958 -552.91781777 1422.91955664 -548.6875 1412 C-547.88739959 1409.93553533 -547.08726923 1407.87108226 -546.28710938 1405.80664062 C-543.85757827 1399.53795203 -541.42872671 1393.26900028 -539 1387 C-535.77142379 1378.66643777 -532.54247333 1370.33302084 -529.3125 1362 C-528.91606293 1360.97720947 -528.51962585 1359.95441895 -528.11117554 1358.90063477 C-522.4375564 1344.26497536 -516.74264319 1329.63777672 -511.02993774 1315.01733398 C-505.49632915 1300.85401997 -499.99326412 1286.6790064 -494.5 1272.5 C-488.68575798 1257.49249756 -482.85738448 1242.49071767 -477 1227.5 C-471.20787564 1212.67489598 -465.43977187 1197.84061301 -459.6875 1183 C-459.29130463 1181.977854 -458.89510925 1180.95570801 -458.48690796 1179.90258789 C-455.6572957 1172.60197434 -452.82855195 1165.30102441 -450 1158 C-446.77142379 1149.66643777 -443.54247333 1141.33302084 -440.3125 1133 C-439.91606293 1131.97720947 -439.51962585 1130.95441895 -439.11117554 1129.90063477 C-433.43651924 1115.26229989 -427.74002023 1100.63264415 -422.0269165 1086.00927734 C-416.55985569 1072.01414889 -411.11762883 1058.00949787 -405.6875 1044 C-405.29130463 1042.977854 -404.89510925 1041.95570801 -404.48690796 1040.90258789 C-401.6572957 1033.60197434 -398.82855195 1026.30102441 -396 1019 C-392.77142379 1010.66643777 -389.54247333 1002.33302084 -386.3125 994 C-385.91606293 992.97720947 -385.51962585 991.95441895 -385.11117554 990.90063477 C-379.4375564 976.26497536 -373.74264319 961.63777672 -368.02993774 947.01733398 C-362.49632915 932.85401997 -356.99326412 918.6790064 -351.5 904.5 C-345.68575798 889.49249756 -339.85738448 874.49071767 -334 859.5 C-328.20787564 844.67489598 -322.43977187 829.84061301 -316.6875 815 C-316.29130463 813.977854 -315.89510925 812.95570801 -315.48690796 811.90258789 C-312.6572957 804.60197434 -309.82855195 797.30102441 -307 790 C-303.77142379 781.66643777 -300.54247333 773.33302084 -297.3125 765 C-296.91606293 763.97720947 -296.51962585 762.95441895 -296.11117554 761.90063477 C-290.43651924 747.26229989 -284.74002023 732.63264415 -279.0269165 718.00927734 C-273.55985569 704.01414889 -268.11762883 690.00949787 -262.6875 676 C-262.29130463 674.977854 -261.89510925 673.95570801 -261.48690796 672.90258789 C-258.6572957 665.60197434 -255.82855195 658.30102441 -253 651 C-249.77142379 642.66643777 -246.54247333 634.33302084 -243.3125 626 C-242.91606293 624.97720947 -242.51962585 623.95441895 -242.11117554 622.90063477 C-236.43651924 608.26229989 -230.74002023 593.63264415 -225.0269165 579.00927734 C-219.55985569 565.01414889 -214.11762883 551.00949787 -208.6875 537 C-208.29130463 535.977854 -207.89510925 534.95570801 -207.48690796 533.90258789 C-204.6572957 526.60197434 -201.82855195 519.30102441 -199 512 C-195.77142379 503.66643777 -192.54247333 495.33302084 -189.3125 487 C-188.91606293 485.97720947 -188.51962585 484.95441895 -188.11117554 483.90063477 C-182.4375564 469.26497536 -176.74264319 454.63777672 -171.02993774 440.01733398 C-165.49632915 425.85401997 -159.99326412 411.6790064 -154.5 397.5 C-148.68575798 382.49249756 -142.85738448 367.49071767 -137 352.5 C-131.20787564 337.67489598 -125.43977187 322.84061301 -119.6875 308 C-119.29130463 306.977854 -118.89510925 305.95570801 -118.48690796 304.90258789 C-115.6572957 297.60197434 -112.82855195 290.30102441 -110 283 C-106.77142379 274.66643777 -103.54247333 266.33302084 -100.3125 258 C-99.91606293 256.97720947 -99.51962585 255.95441895 -99.11117554 254.90063477 C-93.43651924 240.26229989 -87.74002023 225.63264415 -82.0269165 211.00927734 C-76.55985569 197.01414889 -71.11762883 183.00949787 -65.6875 169 C-65.29130463 167.977854 -64.89510925 166.95570801 -64.48690796 165.90258789 C-61.6572957 158.60197434 -58.82855195 151.30102441 -56 144 C-52.77142379 135.66643777 -49.54247333 127.33302084 -46.3125 119 C-45.71784439 117.46581421 -45.71784439 117.46581421 -45.11117554 115.90063477 C-39.44224353 101.27706625 -33.75236965 86.66181838 -28.04403687 72.05358887 C-21.3701473 54.97310438 -14.74033564 37.87560637 -8.1171875 20.77539062 C-7.52748672 19.25319916 -7.52748672 19.25319916 -6.9258728 17.70025635 C-6.18865533 15.79715828 -5.45168159 13.89396577 -4.71499634 11.99066162 C-4.38575165 11.14070618 -4.05650696 10.29075073 -3.71728516 9.41503906 C-3.29003647 8.31147064 -3.29003647 8.31147064 -2.85415649 7.18560791 C-1.91604451 4.78517546 -0.95716031 2.39290079 0 0 Z M195 368 C191.98587863 375.30744292 189.30889133 382.6967563 186.75390625 390.17578125 C186.35077713 391.34907486 185.94764801 392.52236847 185.53230286 393.73121643 C184.66215135 396.26482924 183.7929012 398.79872913 182.92523193 401.33319092 C181.53619646 405.390483 180.14360175 409.44654804 178.75048828 413.50244141 C177.04766286 418.46075096 175.34563146 423.4193316 173.64469147 428.37828827 C169.33283884 440.94897889 165.00813236 453.51523625 160.68139648 466.08081055 C159.58607274 469.26184059 158.49105584 472.44297617 157.39612007 475.62413979 C151.46420822 492.85796414 145.51757885 510.08666796 139.5625 527.3125 C132.7300665 547.07650085 125.92030817 566.84821208 119.125 586.625 C118.89491493 587.2946302 118.66482986 587.96426041 118.42777252 588.65418243 C117.7299982 590.68497965 117.03223333 592.71578012 116.33447266 594.74658203 C115.63657087 596.77779463 114.93866825 598.80900694 114.2407608 600.84021759 C113.77539886 602.19462177 113.3100414 603.54902749 112.84468842 604.90343475 C105.54686528 626.14323674 98.23318672 647.37758153 90.92086792 668.61239624 C88.06273069 676.91255345 85.20578582 685.21312039 82.34952545 693.51392365 C73.38689556 719.56063942 64.41434784 745.60386131 55.41293335 771.63720703 C50.63995173 785.44250467 45.8788805 799.25183632 41.1328125 813.06640625 C40.88472021 813.7884833 40.63662792 814.51056034 40.38101768 815.25451851 C37.94287165 822.35097366 35.50547895 829.44768626 33.07034206 836.5451746 C32.17336974 839.15917561 31.27594315 841.77302044 30.37831688 844.38679695 C29.74061013 846.24390412 29.10325056 848.10113049 28.46589661 849.95835876 C25.90064161 857.42083379 23.30740684 864.87252592 20.61405945 872.28988647 C19.3949703 875.56234571 19.3949703 875.56234571 19 879 C135.16 879 251.32 879 371 879 C369.01461552 871.72025692 366.95646767 864.61821208 364.515625 857.5 C364.1835051 856.52319778 363.85138519 855.54639557 363.50920105 854.53999329 C362.42629583 851.35879171 361.33832451 848.17935125 360.25 845 C359.48433835 842.75549273 358.71879649 840.5109446 357.95336914 838.26635742 C352.87237503 823.38546297 347.71864432 808.53068675 342.5189209 793.69091797 C337.6008755 779.65349495 332.77755144 765.58582544 328 751.5 C322.9037748 736.47480815 317.74624252 721.47347786 312.5 706.5 C306.90706405 690.53701273 301.42276307 674.53956245 295.98974609 658.52148438 C291.22880294 644.48971577 286.39954406 630.48395408 281.5 616.5 C275.90706405 600.53701273 270.42276307 584.53956245 264.98974609 568.52148438 C260.22880294 554.48971577 255.39954406 540.48395408 250.5 526.5 C244.90706405 510.53701273 239.42276307 494.53956245 233.98974609 478.52148438 C228.93334086 463.61891027 223.79179392 448.74846308 218.58786011 433.89682007 C210.91198467 411.9812964 203.45203694 389.9924526 196 368 C195.67 368 195.34 368 195 368 Z " fill="#141415" transform="translate(5606,36)"/>
<path d="M0 0 C129.69 0 259.38 0 393 0 C395.45609153 6.14022882 397.83384845 12.19510765 399.94140625 18.4453125 C400.21692322 19.25523148 400.49244019 20.06515045 400.77630615 20.89961243 C401.70776251 23.64049152 402.63515684 26.38272676 403.5625 29.125 C404.24682437 31.1420643 404.93132006 33.15907049 405.6159668 35.17602539 C413.73173469 59.10293519 421.79638559 83.04724773 429.87109375 106.98803711 C436.41664983 126.39408617 442.97474878 145.79572448 449.5625 165.1875 C457.02587115 187.15796146 464.4549666 209.13987372 471.875 231.125 C479.82183174 254.6705721 487.77500345 278.21395118 495.75 301.75 C496.38520065 303.62466446 496.38520065 303.62466446 497.03323364 305.53720093 C498.73703598 310.56550948 500.44089654 315.59379829 502.14485168 320.62205505 C507.03717234 335.05948578 511.92528865 349.49833905 516.8125 363.9375 C517.03863857 364.60560322 517.26477715 365.27370644 517.4977684 365.96205521 C525.27989869 388.95364387 533.05359247 411.94807919 540.82486343 434.9433403 C548.46814958 457.55982735 556.12071586 480.17314699 563.78201294 502.78353882 C571.12017485 524.44069154 578.44492801 546.10235933 585.76556396 567.76544189 C593.00217698 589.17974405 600.24595822 610.59159556 607.5 632 C615.26565026 654.91828289 623.01861768 677.84083013 630.76556396 700.76544189 C638.00217699 722.17974408 645.24598125 743.59158775 652.5 765 C659.9886165 787.10097697 667.46642029 809.20558875 674.9375 831.3125 C684.9336721 860.8906292 694.93607645 890.46663894 704.95037842 920.03863525 C707.50562816 927.58452852 710.05928053 935.13095989 712.61136818 942.6779232 C714.50224389 948.26943523 716.39410397 953.86061354 718.28668785 959.45154762 C719.40439344 962.7535396 720.52160024 966.05569838 721.63757324 969.35827637 C722.85708986 972.9672417 724.07883277 976.57545104 725.30078125 980.18359375 C725.66317398 981.25723679 726.02556671 982.33087982 726.39894104 983.4370575 C726.7291777 984.41100967 727.05941437 985.38496185 727.3996582 986.38842773 C727.68637894 987.23606186 727.97309967 988.08369598 728.26850891 988.95701599 C728.9638859 991.0273823 728.9638859 991.0273823 730 993 C730.41137207 991.76064697 730.82274414 990.52129395 731.24658203 989.24438477 C738.19928154 968.30605059 745.1539445 947.36900925 752.3125 926.5 C759.29905574 906.12773916 766.18028232 885.72017893 773.0625 865.3125 C775.43213099 858.28640414 777.8019226 851.26036246 780.171875 844.234375 C780.4641095 843.36798967 780.75634399 842.50160435 781.05743408 841.60896492 C786.6298639 825.08920435 792.21685399 808.57440964 797.8125 792.0625 C798.23374146 790.81940063 798.65498291 789.57630127 799.08898926 788.29553223 C800.78276058 783.29722879 802.47660388 778.29894976 804.17059326 773.30072021 C809.05475815 758.88917487 813.9340514 744.4759812 818.8125 730.0625 C819.03885258 729.39375477 819.26520515 728.72500954 819.4984169 728.0359993 C827.25792863 705.11090855 835.00965114 682.18318904 842.7588768 659.2546196 C850.20943678 637.2097823 857.66405503 615.16632482 865.125 593.125 C865.4631863 592.12590984 865.4631863 592.12590984 865.80820465 591.10663605 C869.43088885 580.40431949 873.05396517 569.70213569 876.67709351 558.99996948 C880.07658531 548.95837718 883.47591613 538.9167304 886.875 528.875 C887.10014912 528.20986515 887.32529823 527.5447303 887.55727005 526.85943985 C895.31982047 503.92721331 903.07383225 480.9921071 910.82506561 458.05605316 C918.46827449 435.43976497 926.12078426 412.82665116 933.78201294 390.21646118 C940.86437584 369.31424931 947.93455207 348.40793515 955 327.5 C962.91797584 304.06928092 970.8446457 280.64153516 978.78173828 257.21728516 C985.86419549 236.31479956 992.93445939 215.40820942 1000 194.5 C1007.9138974 171.08134977 1015.8355296 147.66534575 1023.76965332 124.25354004 C1028.6919674 109.72876411 1033.60908513 95.20225807 1038.51550293 80.67210388 C1039.32730075 78.2680659 1040.13921799 75.86406828 1040.95117188 73.46008301 C1041.49023683 71.8640145 1042.02929934 70.26794517 1042.56835938 68.671875 C1042.83424362 67.88463799 1043.10012787 67.09740097 1043.37406921 66.28630829 C1044.91982181 61.7092618 1046.46467972 57.13191462 1048.00882339 52.5543251 C1048.9792733 49.67811637 1049.95055909 46.80219034 1050.92201996 43.92632294 C1051.5677853 42.01379871 1052.21254663 40.10093557 1052.85723877 38.18804932 C1057.16716086 25.43321133 1061.59553265 12.72401679 1066 0 C1196.02 0 1326.04 0 1460 0 C1456.6245549 11.25148368 1456.6245549 11.25148368 1455.00146484 15.72949219 C1454.6354567 16.74327438 1454.26944855 17.75705658 1453.89234924 18.80155945 C1453.50248337 19.87251358 1453.11261749 20.94346771 1452.7109375 22.046875 C1452.29541122 23.19472977 1451.87988495 24.34258453 1451.45176697 25.52522278 C1450.32904875 28.62408315 1449.20376497 31.72199487 1448.07699966 34.81938553 C1447.36915123 36.76608508 1446.66235353 38.71316295 1445.9559021 40.66036987 C1438.10081602 62.31072532 1430.14620684 83.92352616 1422.13969421 105.51832581 C1418.09179944 116.4415675 1414.07680851 127.37688042 1410.0625 138.3125 C1409.68920563 139.32925812 1409.31591125 140.34601624 1408.93130493 141.39358521 C1407.04264223 146.5378461 1405.15427896 151.68221682 1403.26611328 156.82666016 C1399.88729702 166.03197491 1396.50553484 175.23620748 1393.12399292 184.44052124 C1391.24920777 189.54363643 1389.37461355 194.64682177 1387.5 199.75 C1386.75000091 201.791667 1386.00000091 203.83333367 1385.25 205.875 C1384.87875 206.885625 1384.5075 207.89625 1384.125 208.9375 C1377 228.33333333 1369.875 247.72916667 1362.75 267.125 C1362.37874496 268.13564011 1362.00748993 269.14628021 1361.62498474 270.18754578 C1360.87503926 272.2290612 1360.12509013 274.27057528 1359.37513733 276.31208801 C1357.49927315 281.4185577 1355.62347268 286.52505077 1353.74780273 291.6315918 C1350.38316838 300.79167216 1347.01810709 309.95159433 1343.65061951 319.11062622 C1335.63988138 340.89872057 1327.64681547 362.69306425 1319.6875 384.5 C1311.6511139 406.51736539 1303.557766 428.5134592 1295.4491272 450.50430298 C1294.79755142 452.27141129 1294.79755142 452.27141129 1294.1328125 454.07421875 C1293.70076508 455.24592621 1293.26871765 456.41763367 1292.82357788 457.62484741 C1286.63125697 474.42127897 1280.46306047 491.22657503 1274.29348755 508.03137207 C1271.71312731 515.05935361 1269.13047145 522.08648883 1266.546875 529.11328125 C1258.90465517 549.90071133 1251.28119484 570.69479181 1243.6875 591.5 C1236.96875912 609.90739993 1230.21596304 628.30200963 1223.4375 646.6875 C1222.99693268 647.88249115 1222.55636536 649.0774823 1222.10244751 650.3086853 C1220.34136305 655.0852894 1218.58023494 659.86187741 1216.81904602 664.63844299 C1212.49741281 676.36057459 1208.18349983 688.08553517 1203.875 699.8125 C1203.3268866 701.3043129 1203.3268866 701.3043129 1202.7677002 702.82626343 C1196.65874111 719.45641353 1190.57957892 736.09737263 1184.50485229 752.74005127 C1176.86134841 773.67688741 1169.16000305 794.5922029 1161.4491272 815.50430298 C1160.79755142 817.27141129 1160.79755142 817.27141129 1160.1328125 819.07421875 C1159.70076508 820.24592621 1159.26871765 821.41763367 1158.82357788 822.62484741 C1152.63125697 839.42127897 1146.46306047 856.22657503 1140.29348755 873.03137207 C1137.71312731 880.05935361 1135.13047145 887.08648883 1132.546875 894.11328125 C1124.90465517 914.90071133 1117.28119484 935.69479181 1109.6875 956.5 C1101.6511139 978.51736539 1093.557766 1000.5134592 1085.4491272 1022.50430298 C1084.79755142 1024.27141129 1084.79755142 1024.27141129 1084.1328125 1026.07421875 C1083.48474136 1027.83177994 1083.48474136 1027.83177994 1082.82357788 1029.62484741 C1076.63125697 1046.42127897 1070.46306047 1063.22657503 1064.29348755 1080.03137207 C1061.71312731 1087.05935361 1059.13047145 1094.08648883 1056.546875 1101.11328125 C1048.90465517 1121.90071133 1041.28119484 1142.69479181 1033.6875 1163.5 C1025.6511139 1185.51736539 1017.557766 1207.5134592 1009.4491272 1229.50430298 C1008.79755142 1231.27141129 1008.79755142 1231.27141129 1008.1328125 1233.07421875 C1007.70076508 1234.24592621 1007.26871765 1235.41763367 1006.82357788 1236.62484741 C1000.63125697 1253.42127897 994.46306047 1270.22657503 988.29348755 1287.03137207 C985.71312731 1294.05935361 983.13047145 1301.08648883 980.546875 1308.11328125 C973.30025697 1327.82464379 966.06737943 1347.54085598 958.86676025 1367.26907349 C949.51628911 1392.88740924 940.10096545 1418.48152823 930.66221619 1444.06745911 C927.96953825 1451.36754457 925.28176418 1458.66941578 922.59765625 1465.97265625 C921.61964175 1468.63252327 920.64156415 1471.29236708 919.66348267 1473.95220947 C919.06052972 1475.59264919 918.45796232 1477.23323067 917.85580444 1478.8739624 C917.04550871 1481.08171385 916.23385135 1483.28895998 915.421875 1485.49609375 C914.97424805 1486.71482178 914.52662109 1487.9335498 914.06542969 1489.18920898 C913 1492 913 1492 912 1494 C791.88 1494 671.76 1494 548 1494 C544.94302716 1486.66326518 541.95674049 1479.39273144 539.2421875 1471.9375 C538.90181961 1471.00941528 538.56145172 1470.08133057 538.21076965 1469.12512207 C537.0963175 1466.084334 535.98564693 1463.04217976 534.875 1460 C534.07810636 1457.82348513 533.28098222 1455.64705465 532.48364258 1453.47070312 C529.98529864 1446.64852088 527.49213965 1439.82445071 525 1433 C524.21435555 1430.8489583 523.42871103 1428.69791663 522.64306641 1426.546875 C521.1006 1422.32334815 519.55821221 1418.0997926 518.01586914 1413.8762207 C517.63270538 1412.82697418 517.24954163 1411.77772766 516.85476685 1410.69668579 C516.07282818 1408.55526267 515.29098912 1406.41380317 514.50924683 1404.27230835 C506.86431755 1383.33133726 499.16151596 1362.41190015 491.4491272 1341.49569702 C491.01474335 1340.31762482 490.5803595 1339.13955261 490.1328125 1337.92578125 C489.70076508 1336.75407379 489.26871765 1335.58236633 488.82357788 1334.37515259 C482.63125697 1317.57872103 476.46306047 1300.77342497 470.29348755 1283.96862793 C467.71312731 1276.94064639 465.13047145 1269.91351117 462.546875 1262.88671875 C454.90465517 1242.09928867 447.28119484 1221.30520819 439.6875 1200.5 C431.6511139 1178.48263461 423.557766 1156.4865408 415.4491272 1134.49569702 C415.01474335 1133.31762482 414.5803595 1132.13955261 414.1328125 1130.92578125 C413.70076508 1129.75407379 413.26871765 1128.58236633 412.82357788 1127.37515259 C406.63125697 1110.57872103 400.46306047 1093.77342497 394.29348755 1076.96862793 C391.71312731 1069.94064639 389.13047145 1062.91351117 386.546875 1055.88671875 C378.90465517 1035.09928867 371.28119484 1014.30520819 363.6875 993.5 C355.6511139 971.48263461 347.557766 949.4865408 339.4491272 927.49569702 C339.01474335 926.31762482 338.5803595 925.13955261 338.1328125 923.92578125 C337.70076508 922.75407379 337.26871765 921.58236633 336.82357788 920.37515259 C330.63125697 903.57872103 324.46306047 886.77342497 318.29348755 869.96862793 C315.71312731 862.94064639 313.13047145 855.91351117 310.546875 848.88671875 C302.90465517 828.09928867 295.28119484 807.30520819 287.6875 786.5 C280.96875912 768.09260007 274.21596304 749.69799037 267.4375 731.3125 C266.99693268 730.11750885 266.55636536 728.9225177 266.10244751 727.6913147 C264.34136305 722.9147106 262.58023494 718.13812259 260.81904602 713.36155701 C256.49741281 701.63942541 252.18349983 689.91446483 247.875 678.1875 C247.50959106 677.19295807 247.14418213 676.19841614 246.7677002 675.17373657 C240.65874111 658.54358647 234.57957892 641.90262737 228.50485229 625.25994873 C220.86134841 604.32311259 213.16000305 583.4077971 205.4491272 562.49569702 C205.01474335 561.31762482 204.5803595 560.13955261 204.1328125 558.92578125 C203.70076508 557.75407379 203.26871765 556.58236633 202.82357788 555.37515259 C196.63125697 538.57872103 190.46306047 521.77342497 184.29348755 504.96862793 C181.71312731 497.94064639 179.13047145 490.91351117 176.546875 483.88671875 C168.90465517 463.09928867 161.28119484 442.30520819 153.6875 421.5 C145.6511139 399.48263461 137.557766 377.4865408 129.4491272 355.49569702 C129.01474335 354.31762482 128.5803595 353.13955261 128.1328125 351.92578125 C127.70076508 350.75407379 127.26871765 349.58236633 126.82357788 348.37515259 C120.63125697 331.57872103 114.46306047 314.77342497 108.29348755 297.96862793 C105.71312731 290.94064639 103.13047145 283.91351117 100.546875 276.88671875 C92.90465517 256.09928867 85.28119484 235.30520819 77.6875 214.5 C69.6511139 192.48263461 61.557766 170.4865408 53.4491272 148.49569702 C53.01474335 147.31762482 52.5803595 146.13955261 52.1328125 144.92578125 C51.70076508 143.75407379 51.26871765 142.58236633 50.82357788 141.37515259 C46.47755677 129.586738 42.14339232 117.79397976 37.8125 106 C37.4488031 105.00959717 37.0851062 104.01919434 36.71038818 102.9987793 C35.25007513 99.02199839 33.78983819 95.04518955 32.32974243 91.06832886 C29.24709192 82.67220633 26.16295065 74.276632 23.07801819 65.88134766 C21.1498857 60.633994 19.22240083 55.3864048 17.29663086 50.13818359 C12.79879884 37.88137272 12.79879884 37.88137272 8.2696991 25.63609314 C7.2091249 22.77978947 6.15166346 19.92233852 5.0944519 17.06478882 C4.39793154 15.18682811 3.6962451 13.31078597 2.99438477 11.43481445 C2.59147217 10.34515381 2.18855957 9.25549316 1.7734375 8.1328125 C1.25402588 6.73893311 1.25402588 6.73893311 0.72412109 5.31689453 C0 3 0 3 0 0 Z " fill="#141415" transform="translate(1858,36)"/>
<path d="M0 0 C121.44 0 242.88 0 368 0 C368 387.09 368 774.18 368 1173 C598.34 1173 828.68 1173 1066 1173 C1066 1278.93 1066 1384.86 1066 1494 C714.22 1494 362.44 1494 0 1494 C0 1000.98 0 507.96 0 0 Z " fill="#141416" transform="translate(29,36)"/>
<path d="M0 0 C314.16 0 628.32 0 952 0 C952 103.29 952 206.58 952 313 C759.28 313 566.56 313 368 313 C368 405.73 368 498.46 368 594 C575.57 594 783.14 594 997 594 C997 699.27 997 804.54 997 913 C667.99 913 338.98 913 0 913 C0 611.71 0 310.42 0 0 Z " fill="#141416" transform="translate(3480,618)"/>
<path d="M0 0 C121.44 0 242.88 0 368 0 C368 493.02 368 986.04 368 1494 C246.56 1494 125.12 1494 0 1494 C0 1000.98 0 507.96 0 0 Z " fill="#141416" transform="translate(1318,36)"/>
<path d="M0 0 C118.47 0 236.94 0 359 0 C359 493.02 359 986.04 359 1494 C240.53 1494 122.06 1494 0 1494 C0 1000.98 0 507.96 0 0 Z " fill="#141416" transform="translate(6750,36)"/>
<path d="M0 0 C323.4 0 646.8 0 980 0 C980 105.27 980 210.54 980 319 C778.04 319 576.08 319 368 319 C368 319.66 368 320.32 368 321 C246.56 321 125.12 321 0 321 C0 215.07 0 109.14 0 0 Z " fill="#A2001A" transform="translate(3480,36)"/>
</svg>
